<svg xmlns="http://www.w3.org/2000/svg" viewBox="0 0 240 240">
  <g transform="translate(-9,-4)">
    <path d="M170 62 A34 34 0 1 1 174 114" fill="none" stroke="#D2694A" stroke-width="15" stroke-linecap="round"/>
    <circle cx="110" cy="112" r="88" fill="#DD7C63"/>
    <path d="M35 158 Q110 136 185 158 A88 88 0 0 1 35 158 Z" fill="#C75F43"/>
    <ellipse cx="78" cy="192" rx="26" ry="14" fill="#DD7C63"/>
    <ellipse cx="146" cy="192" rx="26" ry="14" fill="#DD7C63"/>
    <circle cx="74" cy="104" r="10" fill="#CE6349" opacity="0.55"/>
    <ellipse cx="130" cy="86" rx="29" ry="32" fill="#FFFFFF"/>
    <circle cx="134" cy="90" r="18" fill="#4E2317"/>
    <circle cx="141" cy="81" r="6" fill="#FFFFFF"/>
    <path d="M78 120 Q104 142 130 124" fill="none" stroke="#4E2317" stroke-width="9" stroke-linecap="round"/>
    <g transform="rotate(-7 168 176)">
      <rect x="128" y="139" width="88" height="84" rx="13" fill="#A64A2C" opacity="0.22"/>
      <rect x="146" y="126" width="8" height="14" rx="4" fill="#B0512F"/>
      <rect x="182" y="126" width="8" height="14" rx="4" fill="#B0512F"/>
      <rect x="124" y="134" width="88" height="84" rx="13" fill="#C75F43"/>
      <path d="M124 154 h88 v51 a13 13 0 0 1 -13 13 h-62 a13 13 0 0 1 -13 -13 z" fill="#FFF8F5"/>
      <text x="168" y="201" text-anchor="middle" font-family="Trebuchet MS, Verdana, sans-serif" font-size="44" font-weight="800" fill="#4E2317">17</text>
    </g>
  </g>
</svg>